<svg width="160" height="80" viewBox="0 0 160 80" fill="none" xmlns="http://www.w3.org/2000/svg">
<path fill-rule="evenodd" clip-rule="evenodd" d="M76.1779 0H67.7577V0.24142L43.2273 24.8903L49.1842 30.876L67.7577 12.2127V53.2277H76.1779V0ZM2.9915 7.30223L9.33744 0.406356L76.2378 73.1041L69.8919 80L2.9915 7.30223ZM26.8291 61.4652L32.7055 55.4103L8.30143 30.2647V30.2321H8.2698L8.26957 30.2319L8.26934 30.2321H0V79.9685H8.30143V42.3746L26.8291 61.4652ZM89.1625 46.5201H91.7324C92.1812 46.0743 92.4973 45.6284 92.6809 45.1826C92.8848 44.7182 92.9868 44.0402 92.9868 43.1486V30.2478H97.1783V41.7554C97.1783 42.7028 97.1478 43.4458 97.0866 43.9845C97.0458 44.5046 96.9234 45.1455 96.7194 45.9071C96.3727 47.2631 95.414 48.5448 93.8435 49.7522H87.0514C85.4809 48.582 84.5222 47.3003 84.1755 45.9071C83.8695 44.774 83.7166 43.3901 83.7166 41.7554V30.2478H87.9081V43.1486C87.9081 44.0402 87.9999 44.7182 88.1834 45.1826C88.3874 45.6284 88.7137 46.0743 89.1625 46.5201ZM108.812 38.9691L115.028 49.7522H118.119V30.2478H113.931V37.966L114.296 41.3932L114.13 41.4489L108.014 30.2478H104.657V49.7522H108.845V42.3127L108.646 39.0248L108.812 38.9691ZM125.598 49.7522V30.2478H138.911V33.5914H130.678V38.2446H138.021V41.4768H130.678V46.5201H139.059V49.7522H125.598ZM154.65 34.7338L153.319 40.8359H153.219L151.888 34.7338L150.808 30.2478H147.668L146.538 49.7522H149.828L150.306 39.1084H150.431L152.239 46.9659H154.299L156.107 39.1084H156.233L156.71 49.7522H160L158.87 30.2478H155.73L154.65 34.7338Z" fill="#262F7E"/>
</svg>
