<svg width="234" height="98" viewBox="0 0 234 98" fill="none" xmlns="http://www.w3.org/2000/svg">
<path fill-rule="evenodd" clip-rule="evenodd" d="M63.2199 30.4907L71.9318 37.8231L99.0956 14.9606V65.2039H111.41V0H99.447H99.0956V0.295737L63.2199 30.4907ZM4.37507 8.94523L13.656 0.497786L111.498 89.5526L102.217 98L4.37507 8.94523ZM39.2376 75.2948L47.8318 67.8776L12.1408 37.0743V37.0343H12.0945L12.0942 37.0341L12.094 37.0343H0V97.9614H12.1408V51.9088L39.2376 75.2948ZM130.4 56.9871H134.159C134.815 56.441 135.277 55.8948 135.546 55.3487C135.844 54.7798 135.993 53.9493 135.993 52.857V37.0535H142.123V51.1504C142.123 52.3109 142.079 53.2211 141.989 53.881C141.929 54.5182 141.75 55.3032 141.452 56.2362C140.945 57.8973 139.543 59.4674 137.246 60.9465H127.313C125.016 59.5129 123.614 57.9428 123.107 56.2362C122.659 54.8481 122.435 53.1528 122.435 51.1504V37.0535H128.566V52.857C128.566 53.9493 128.7 54.7798 128.968 55.3487C129.267 55.8948 129.744 56.441 130.4 56.9871ZM159.138 47.7371L168.228 60.9465H172.749V37.0535H166.624V46.5083L167.159 50.7067L166.915 50.7749L157.971 37.0535H153.061V60.9465H159.186V51.833L158.894 47.8054L159.138 47.7371ZM183.687 60.9465V37.0535H203.158V41.1495H191.117V46.8496H201.856V50.8091H191.117V56.9871H203.374V60.9465H183.687ZM226.176 42.5489L224.23 50.024H224.083L222.136 42.5489L220.556 37.0535H215.965L214.312 60.9465H219.124L219.822 47.9078H220.005L222.65 57.5332H225.662L228.307 47.9078H228.49L229.188 60.9465H234L232.347 37.0535H227.756L226.176 42.5489Z" fill="white"/>
</svg>
